<svg xmlns="http://www.w3.org/2000/svg" viewBox="0 0 900 640" role="img" aria-label="Arduino system illustration">
  <rect width="900" height="640" fill="#f2efe6"/>
  <path d="M0 96h900M0 224h900M0 352h900M0 480h900M128 0v640M256 0v640M384 0v640M512 0v640M640 0v640M768 0v640" stroke="#047d78" stroke-opacity=".13" stroke-width="3"/>
  <path d="M86 92h406l80 80v312H86z" fill="#171a17" stroke="#24211b" stroke-width="10"/>
  <path d="M510 96v82h82" fill="none" stroke="#efb33d" stroke-width="14" stroke-linecap="round"/>
  <rect x="178" y="204" width="194" height="116" rx="8" fill="#fffdf6" stroke="#efb33d" stroke-width="10"/>
  <rect x="414" y="214" width="82" height="82" rx="8" fill="#047d78"/>
  <circle cx="222" cy="404" r="38" fill="#d34d34"/>
  <circle cx="354" cy="404" r="38" fill="#83ad54"/>
  <path d="M576 244h102c58 0 88 30 88 88s30 88 88 88" fill="none" stroke="#047d78" stroke-width="16" stroke-linecap="round"/>
  <path d="M576 336h112c44 0 66 21 66 64v72" fill="none" stroke="#efb33d" stroke-width="16" stroke-linecap="round"/>
  <path d="M166 510h354" stroke="#fffdf6" stroke-opacity=".5" stroke-width="8" stroke-linecap="round"/>
  <circle cx="854" cy="420" r="24" fill="#d34d34"/>
  <circle cx="754" cy="472" r="24" fill="#83ad54"/>
</svg>
